<?xml version="1.0" standalone="no"?><!DOCTYPE svg PUBLIC "-//W3C//DTD SVG 1.1//EN" "http://www.w3.org/Graphics/SVG/1.1/DTD/svg11.dtd"><svg t="1585684586890" class="icon" viewBox="0 0 1098 1024" version="1.1" xmlns="http://www.w3.org/2000/svg" p-id="2261" xmlns:xlink="http://www.w3.org/1999/xlink" width="15.01171875" height="14"><defs><style type="text/css"></style></defs><path d="M960 100.571429l-822.857143 0c-30.299429 0-54.857143 24.557714-54.857143 54.857143l0 530.285714c0 30.299429 24.557714 54.857143 54.857143 54.857143l208.457143 0 32.914286-54.857143L155.428571 685.714286c-10.093714 0-18.285714-8.192-18.285714-18.285714l0-493.714286c0-10.093714 8.192-18.285714 18.285714-18.285714l786.285714 0c10.093714 0 18.285714 8.192 18.285714 18.285714l0 493.714286c0 10.093714-8.192 18.285714-18.285714 18.285714l-420.571429 0c-68.187429 1.517714-73.142857 36.571429-73.142857 36.571429l-1.92-1.92L338.285714 905.142857l1.682286 0C338.944 908.013714 338.285714 911.067429 338.285714 914.285714c0 15.158857 12.288 27.428571 27.428571 27.428571l365.714286 0c15.140571 0 27.428571-12.269714 27.428571-27.428571 0-3.218286-0.658286-6.272-1.682286-9.142857L758.857143 905.142857l-64-109.714286-70.089143 0 50.797714 91.428571L421.577143 886.857143l81.28-146.285714 457.142857 0c30.299429 0 54.857143-24.557714 54.857143-54.857143l0-530.285714C1014.857143 125.129143 990.299429 100.571429 960 100.571429zM374.857143 301.714286c-10.093714 0-18.285714 8.192-18.285714 18.285714l0 201.142857c0 10.093714 8.192 18.285714 18.285714 18.285714s18.285714-8.192 18.285714-18.285714l0-201.142857C393.142857 309.906286 384.950857 301.714286 374.857143 301.714286zM612.571429 539.428571c10.093714 0 18.285714-8.192 18.285714-18.285714l0-182.857143 107.099429 0c11.538286 0 20.900571-8.192 20.900571-18.285714 0-10.093714-9.362286-18.285714-20.900571-18.285714L487.186286 301.714286c-11.538286 0-20.900571 8.192-20.900571 18.285714 0 10.093714 9.362286 18.285714 20.900571 18.285714L594.285714 338.285714l0 182.857143C594.285714 531.236571 602.477714 539.428571 612.571429 539.428571z" p-id="2262"></path></svg>